<svg width="90" height="189" viewBox="0 0 90 189" fill="none" xmlns="http://www.w3.org/2000/svg">
<path d="M61.4 174.6V169C61.4 165.533 60.6333 162.733 59.1 160.6C57.5667 158.467 54.7333 157.4 50.6 157.4C48.5333 157.4 46.8333 157.7 45.5 158.3C44.1 158.833 43 159.6 42.2 160.6C41.3333 161.533 40.7333 162.667 40.4 164C40.0667 165.333 39.9 166.8 39.9 168.4V174.6H61.4ZM29.9 174.6V170.5C29.9 166.5 29.2 163.6 27.8 161.8C26.3333 159.933 23.9 159 20.5 159C17.1 159 14.7 159.833 13.3 161.5C11.9 163.167 11.2 165.8 11.2 169.4V174.6H29.9ZM0.599995 189L0.599995 164.9C0.599995 161.967 0.899995 159.267 1.5 156.8C2.1 154.267 3.1 152.1 4.5 150.3C5.9 148.5 7.76666 147.1 10.1 146.1C12.4333 145.1 15.3 144.6 18.7 144.6C22.5667 144.6 25.9 145.5 28.7 147.3C31.4333 149.1 33.3 151.8 34.3 155.4H34.5C35.0333 151.4 36.7333 148.233 39.6 145.9C42.4667 143.567 46.3 142.4 51.1 142.4C53.9 142.4 56.5667 142.767 59.1 143.5C61.6333 144.233 63.8667 145.5 65.8 147.3C67.6667 149.033 69.1667 151.333 70.3 154.2C71.4333 157 72 160.5 72 164.7V189H0.599995ZM0.599995 119.534H38.3V119.334L18.2 105.434V90.2336L39.4 105.734L72 87.9336V103.134L49.9 114.634L56.3 119.534H72V133.334H0.599995V119.534ZM79 83.8336C79.2 82.6336 79.3 81.4336 79.3 80.2336C79.3 77.7003 78.6333 75.9003 77.3 74.8336C75.9667 73.7003 74.2 73.0336 72 72.8336L18.2 87.9336V73.5336L55.4 65.5336V65.3336L18.2 58.3336V44.5336L68.4 57.5336C72.8667 58.7336 76.4667 59.9003 79.2 61.0336C82 62.1003 84.1333 63.4003 85.6 64.9336C87.1333 66.4003 88.1333 68.2003 88.6 70.3336C89.0667 72.4003 89.3 75.0336 89.3 78.2336V83.8336H79ZM37.6 13.5C36.2667 13.5 34.9667 13.6 33.7 13.8C32.4333 13.9333 31.3 14.2333 30.3 14.7C29.2333 15.1 28.4 15.7 27.8 16.5C27.1333 17.3 26.8 18.3667 26.8 19.7C26.8 21.3667 27.2 22.7333 28 23.8C28.7333 24.8667 29.8667 25.6667 31.4 26.2C32.8667 26.7333 34.7667 27.1 37.1 27.3C39.3667 27.5 42.0667 27.6 45.2 27.6C48.5333 27.6 51.4 27.5 53.8 27.3C56.1333 27.1 58.0667 26.7333 59.6 26.2C61.1333 25.6667 62.2667 24.9333 63 24C63.6667 23 64 21.7333 64 20.2C64 17.8667 63 16.1667 61 15.1C59 14.0333 55.8 13.5 51.4 13.5V0.299999C58.4667 0.299999 63.8667 1.9 67.6 5.1C71.2667 8.23333 73.1 13.4667 73.1 20.8C73.1 24.2667 72.7 27.3 71.9 29.9C71.0333 32.4333 69.5333 34.5667 67.4 36.3C65.2 37.9667 62.3 39.2333 58.7 40.1C55.0333 40.9667 50.5 41.4 45.1 41.4C39.5667 41.4 35 40.8667 31.4 39.8C27.7333 38.7333 24.8333 37.2333 22.7 35.3C20.5 33.3667 18.9667 31.0667 18.1 28.4C17.2333 25.7333 16.8 22.8 16.8 19.6C16.8 13.2 18.6667 8.4 22.4 5.2C26.1333 1.93333 31.2 0.299999 37.6 0.299999V13.5Z" fill="#444444"/>
</svg>
