<svg width="68" height="39" viewBox="0 0 68 39" fill="none" xmlns="http://www.w3.org/2000/svg">
<path d="M15.8562 7.392C16.4322 7.536 16.9282 7.832 17.3442 8.28C17.7602 8.712 17.9682 9.336 17.9682 10.152C17.9682 11 17.8242 11.728 17.5362 12.336C17.2642 12.944 16.9202 13.416 16.5042 13.752C16.0882 14.088 15.5522 14.352 14.8962 14.544C14.2402 14.736 13.6242 14.864 13.0482 14.928C12.4882 14.976 11.8242 15 11.0562 15H7.07219V1.032C8.64019 0.664 10.3522 0.48 12.2082 0.48C13.0562 0.48 13.7922 0.584 14.4162 0.792C15.0562 0.983999 15.5362 1.216 15.8562 1.488C16.1762 1.76 16.4322 2.08 16.6242 2.448C16.8162 2.816 16.9282 3.12 16.9602 3.36C17.0082 3.6 17.0322 3.832 17.0322 4.056C17.0322 5.624 16.6402 6.736 15.8562 7.392ZM10.4322 3.264V6.312C10.5922 6.344 10.7842 6.36 11.0082 6.36C12.5122 6.36 13.2642 5.8 13.2642 4.68C13.2642 3.656 12.6802 3.144 11.5122 3.144C11.2722 3.144 10.9122 3.184 10.4322 3.264ZM11.3442 12.264C12.9122 12.264 13.6962 11.728 13.6962 10.656C13.6962 10.016 13.5202 9.552 13.1682 9.264C12.8322 8.976 12.3922 8.832 11.8482 8.832C11.3202 8.832 10.8482 8.936 10.4322 9.144V12.168C10.7042 12.232 11.0082 12.264 11.3442 12.264ZM26.9716 10.44C27.1956 10.68 27.5636 11.184 28.0756 11.952C28.5876 12.704 29.0436 13.4 29.4436 14.04L30.0436 15H26.0356L23.9956 11.328L23.8276 15H20.2036L20.1316 3.336L24.3316 3.024L24.0676 9.288C25.6356 5.56 26.4596 3.6 26.5396 3.408L30.6196 3.216C30.4596 3.92 30.0756 4.872 29.4676 6.072C28.8596 7.272 28.2916 8.296 27.7636 9.144L26.9716 10.44ZM42.5774 3.048L42.6014 12.432C42.6014 12.992 42.5694 13.544 42.5054 14.088C42.4414 14.616 42.2814 15.248 42.0254 15.984C41.7854 16.736 41.4574 17.384 41.0414 17.928C40.6254 18.472 40.0174 18.944 39.2174 19.344C38.4334 19.744 37.5054 19.952 36.4334 19.968H36.3374C34.3854 19.968 32.7774 19.656 31.5134 19.032V14.592C32.8894 15.376 34.4174 15.768 36.0974 15.768C36.6414 15.768 37.1134 15.68 37.5134 15.504C37.9134 15.328 38.2094 15.128 38.4014 14.904C38.6094 14.664 38.7774 14.392 38.9054 14.088C39.0334 13.768 39.1054 13.512 39.1214 13.32C39.1534 13.128 39.1694 12.944 39.1694 12.768C39.1534 12.752 39.1214 12.744 39.0734 12.744C39.0414 12.728 39.0094 12.704 38.9774 12.672C38.9134 12.816 38.8254 12.968 38.7134 13.128C38.6174 13.272 38.4574 13.448 38.2334 13.656C38.0254 13.864 37.7374 14.032 37.3694 14.16C37.0014 14.288 36.5854 14.352 36.1214 14.352C34.9054 14.352 33.9054 13.88 33.1214 12.936C32.3534 11.992 31.9694 10.624 31.9694 8.832V3.408L36.2414 3.048C36.2414 6.056 36.2254 7.768 36.1934 8.184V8.352C36.1934 8.976 36.2734 9.568 36.4334 10.128C36.6094 10.688 36.9134 10.968 37.3454 10.968C37.8094 10.968 38.1294 10.632 38.3054 9.96C38.4814 9.272 38.5694 8.592 38.5694 7.92V3.408L42.5774 3.048ZM53.7698 11.328L54.9218 14.352C53.5938 14.784 52.2258 15 50.8178 15C50.0658 15 49.3698 14.92 48.7298 14.76C48.0898 14.584 47.4658 14.296 46.8578 13.896C46.2658 13.48 45.7938 12.872 45.4418 12.072C45.1058 11.256 44.9378 10.272 44.9378 9.12C44.9378 7.904 45.1218 6.872 45.4898 6.024C45.8578 5.176 46.3618 4.544 47.0018 4.128C47.6418 3.712 48.2818 3.424 48.9218 3.264C49.5778 3.088 50.2898 3 51.0578 3C52.0338 3 53.1618 3.16 54.4418 3.48L53.0498 8.184C52.4578 8.024 51.8338 7.944 51.1778 7.944C50.9858 7.944 50.7378 7.984 50.4338 8.064C50.1298 8.144 49.8018 8.328 49.4498 8.616C49.1138 8.904 48.9458 9.264 48.9458 9.696C48.9458 11.024 49.7938 11.688 51.4898 11.688C51.8258 11.688 52.1858 11.656 52.5698 11.592C52.9538 11.528 53.2498 11.464 53.4578 11.4L53.7698 11.328ZM5.76981 31.368L1.59381 24.96L7.83381 24.48L9.58581 28.608L11.2178 25.248L16.7858 24.864L12.1778 31.872L16.7858 39H10.8338L8.43381 34.776L6.08181 39H0.897813L5.76981 31.368ZM21.0318 39H18.3438V35.136H19.9278C20.8078 35.136 21.2478 34.544 21.2478 33.36V27.504L31.3278 27V39H27.3918V30.96L24.8718 31.104V34.8C24.8718 35.552 24.7358 36.208 24.4638 36.768C24.2078 37.328 23.8878 37.744 23.5038 38.016C23.1358 38.288 22.7598 38.504 22.3758 38.664C22.0078 38.824 21.6878 38.92 21.4158 38.952L21.0318 39ZM36.9451 34.104C37.2651 35.272 38.1131 35.856 39.4891 35.856C39.9211 35.856 40.3771 35.8 40.8571 35.688C41.3371 35.576 41.7131 35.464 41.9851 35.352L42.3931 35.184L43.4251 38.04C42.5291 38.68 41.0571 39 39.0091 39C34.9291 39 32.8891 37.128 32.8891 33.384C32.8891 32.232 33.0491 31.232 33.3691 30.384C33.7051 29.52 34.0891 28.88 34.5211 28.464C34.9531 28.048 35.4491 27.72 36.0091 27.48C36.5851 27.24 37.0251 27.104 37.3291 27.072C37.6331 27.024 37.9211 27 38.1931 27C39.0731 27 39.8491 27.12 40.5211 27.36C41.1931 27.6 41.7131 27.896 42.0811 28.248C42.4491 28.584 42.7451 29 42.9691 29.496C43.2091 29.976 43.3611 30.424 43.4251 30.84C43.5051 31.256 43.5451 31.696 43.5451 32.16C43.5451 32.432 43.5291 32.704 43.4971 32.976C43.4811 33.232 43.4571 33.432 43.4251 33.576L43.3771 33.768C43.2491 33.768 43.0811 33.776 42.8731 33.792C42.6651 33.792 42.2811 33.808 41.7211 33.84C41.1611 33.856 40.6331 33.88 40.1371 33.912C39.6411 33.928 39.1371 33.952 38.6251 33.984C38.1131 34.016 37.7051 34.04 37.4011 34.056C37.0971 34.072 36.9451 34.088 36.9451 34.104ZM38.5051 29.496C37.3851 29.512 36.8251 30.28 36.8251 31.8L40.1131 31.56C40.1131 31.272 40.0811 31 40.0171 30.744C39.9691 30.472 39.8171 30.2 39.5611 29.928C39.3051 29.64 38.9531 29.496 38.5051 29.496ZM52.0684 29.856C53.0764 29.856 53.9324 30.2 54.6364 30.888C55.3404 31.576 55.6924 32.376 55.6924 33.288C55.6924 33.656 55.6844 33.952 55.6684 34.176C55.6684 34.4 55.6284 34.736 55.5484 35.184C55.4844 35.616 55.3884 35.984 55.2604 36.288C55.1484 36.576 54.9564 36.912 54.6844 37.296C54.4284 37.664 54.1084 37.96 53.7244 38.184C53.3564 38.408 52.8764 38.6 52.2844 38.76C51.7084 38.92 51.0524 39 50.3164 39C49.3724 39 48.5484 38.8 47.8444 38.4C47.1404 37.984 46.6204 37.52 46.2844 37.008C45.9644 36.48 45.7004 35.872 45.4924 35.184C45.3004 34.496 45.1884 33.976 45.1564 33.624C45.1244 33.256 45.1084 32.928 45.1084 32.64V32.184C45.1084 30.952 45.2924 29.872 45.6604 28.944C46.0444 28.016 46.4844 27.312 46.9804 26.832C47.4924 26.352 48.0844 25.96 48.7564 25.656C49.4444 25.336 49.9964 25.136 50.4124 25.056C50.8284 24.976 51.2364 24.928 51.6364 24.912C52.0524 24.896 52.5484 24.856 53.1244 24.792C53.7164 24.712 54.1964 24.632 54.5644 24.552L55.1404 24.456C55.3804 25.176 55.5004 26.016 55.5004 26.976C55.5004 27.056 55.4924 27.176 55.4764 27.336C55.4764 27.496 55.4764 27.624 55.4764 27.72C55.3804 28.616 54.6604 29.064 53.3164 29.064C53.0284 29.064 52.6124 29.04 52.0684 28.992C51.5244 28.944 51.1644 28.92 50.9884 28.92H50.8684C50.3884 28.92 50.0124 29.064 49.7404 29.352C49.4844 29.64 49.3404 29.928 49.3084 30.216L49.2604 30.672C49.3084 30.608 49.3964 30.536 49.5244 30.456C49.6524 30.36 49.9564 30.24 50.4364 30.096C50.9164 29.936 51.4604 29.856 52.0684 29.856ZM48.9484 33.96C48.9484 34.312 48.9644 34.616 48.9964 34.872C49.0284 35.112 49.0844 35.392 49.1644 35.712C49.2444 36.032 49.3804 36.28 49.5724 36.456C49.7644 36.616 50.0044 36.696 50.2924 36.696C51.2364 36.696 51.7084 35.816 51.7084 34.056C51.7084 32.552 51.2524 31.8 50.3404 31.8C49.9564 31.8 49.6524 31.944 49.4284 32.232C49.2044 32.52 49.0684 32.808 49.0204 33.096C48.9724 33.368 48.9484 33.656 48.9484 33.96ZM67.1031 32.376L66.7911 39H63.2391L63.0471 37.8C62.8071 38.2 62.4311 38.504 61.9191 38.712C61.4071 38.904 60.9191 39 60.4551 39C60.2631 39 60.0551 38.984 59.8311 38.952C59.6071 38.92 59.3351 38.832 59.0151 38.688C58.6951 38.544 58.4071 38.368 58.1511 38.16C57.9111 37.936 57.7031 37.616 57.5271 37.2C57.3511 36.768 57.2631 36.272 57.2631 35.712C57.2631 34.48 57.5751 33.616 58.1991 33.12C58.8391 32.624 59.6391 32.376 60.5991 32.376C61.0791 32.376 61.8951 32.48 63.0471 32.688C63.0471 32.672 63.0471 32.632 63.0471 32.568C63.0471 32.488 63.0391 32.368 63.0231 32.208C63.0231 32.048 63.0231 31.856 63.0231 31.632C63.0231 30.928 62.6711 30.576 61.9671 30.576C61.5671 30.576 61.0951 30.648 60.5511 30.792C60.0231 30.936 59.5911 31.08 59.2551 31.224L58.7511 31.44L57.3591 28.512C57.8711 28.128 58.5991 27.784 59.5431 27.48C60.5031 27.16 61.5031 27 62.5431 27C63.3271 27 64.0071 27.12 64.5831 27.36C65.1751 27.584 65.6231 27.864 65.9271 28.2C66.2471 28.52 66.4951 28.944 66.6711 29.472C66.8631 29.984 66.9831 30.456 67.0311 30.888C67.0791 31.32 67.1031 31.816 67.1031 32.376ZM63.0471 36V34.776C62.7111 34.472 62.2311 34.32 61.6071 34.32C61.1751 34.32 60.8471 34.432 60.6231 34.656C60.4151 34.88 60.3111 35.16 60.3111 35.496C60.3111 35.816 60.4071 36.096 60.5991 36.336C60.8071 36.576 61.0871 36.696 61.4391 36.696C61.6951 36.696 61.9511 36.64 62.2071 36.528C62.4791 36.416 62.6871 36.296 62.8311 36.168L63.0471 36Z" fill="#444444"/>
</svg>
